#!OML:ASF H:\ManfredETheater\Project 1\Capture day 1\Session 1\subject.ASF
:FULLY-SPECIFIED
:DEGREES
262
root -1.90078 15.9653 -37.9499 184.685 -8.44923 -178.094
lowerback 28.5098 -1.36829 6.86201
upperback 2.71705 -0.05482 4.67578
thorax -12.7607 -0.67567 1.55509
lowerneck -12.387 -5.601 -5.2771
upperneck 2.56507 -6.93837 3.00117
head 3.36097 -3.42761 1.44507
rclavicle -2.38542e-014 -3.97569e-014
rhumerus -19.547 -23.2423 -78.6702
rradius 45.9269
rwrist -2.12168
rhand -25.7345 -14.2287
rfingers 7.12502
rthumb 0.802182 -44.2069
lclavicle -2.38542e-014 -3.97569e-014
lhumerus -44.2616 9.45015 74.6125
lradius 60.8922
lwrist -14.1078
lhand -32.1222 2.1746
lfingers 7.12502
lthumb -5.36672 32.0866
rfemur -41.0756 -7.53087 4.78459
rtibia 53.4186
rfoot -12.5395 0.422433
rtoes -37.3873
lfemur -43.1098 3.9271 1.70645
ltibia 60.7508
lfoot -19.0417 -8.12661
ltoes -6.23927
263
root -1.90645 15.9179 -38.0821 184.636 -7.24769 -178.179
lowerback 28.6876 -1.24468 6.58201
upperback 2.80521 0.00124511 4.65791
thorax -12.7495 -0.645235 1.67667
lowerneck -12.6076 -5.26871 -4.92095
upperneck 2.45029 -6.52412 2.57558
head 3.30784 -3.23883 1.2677
rclavicle 7.95139e-015 -3.33958e-014
rhumerus -19.2448 -22.6356 -78.8575
rradius 46.2918
rwrist -1.94045
rhand -25.8152 -14.2387
rfingers 7.12502
rthumb 0.724197 -44.2172
lclavicle 7.95139e-015 -3.33958e-014
lhumerus -44.3439 9.75625 74.714
lradius 61.0071
lwrist -13.749
lhand -32.2222 2.32267
lfingers 7.12502
lthumb -5.4633 32.2322
rfemur -41.6145 -7.81592 4.96354
rtibia 54.4591
rfoot -13.4683 1.43083
rtoes -37.5924
lfemur -42.4289 4.14494 1.84005
ltibia 61.7171
lfoot -20.1957 -7.05153
ltoes -6.41441
264
root -1.91505 15.8855 -38.213 184.688 -6.13369 -178.311
lowerback 28.7271 -1.106 6.28533
upperback 2.89531 0.0626599 4.63676
thorax -12.6641 -0.608458 1.79626
lowerneck -12.7819 -4.96524 -4.62739
upperneck 2.30304 -6.14574 2.17282
head 3.24379 -3.06881 1.10798
rclavicle -2.46493e-014 6.36111e-015
rhumerus -18.9873 -21.9417 -78.982
rradius 46.6325
rwrist -1.66481
rhand -25.9072 -14.1976
rfingers 7.12502
rthumb 0.635375 -44.1764
lclavicle -2.46493e-014 6.36111e-015
lhumerus -44.262 9.81366 75.014
lradius 60.9854
lwrist -13.1154
lhand -32.3005 2.55739
lfingers 7.12502
lthumb -5.53888 32.465
rfemur -42.0138 -8.09866 5.0563
rtibia 55.1935
rfoot -14.3824 2.30398
rtoes -37.7451
lfemur -41.7577 4.40011 1.83163
ltibia 62.4493
lfoot -21.2111 -6.01301
ltoes -6.11233
265
root -1.92516 15.8684 -38.3433 184.805 -5.19322 -178.47
lowerback 28.656 -0.991773 6.01316
upperback 2.97361 0.0973697 4.61791
thorax -12.5358 -0.582247 1.91118
lowerneck -12.9057 -4.69405 -4.40391
upperneck 2.15606 -5.8055 1.80384
head 3.17922 -2.91749 0.970346
rclavicle 1.35174e-014 2.70347e-014
rhumerus -18.8171 -21.1555 -79.0492
rradius 46.9661
rwrist -1.30337
rhand -26.0245 -14.0911
rfingers 7.12502
rthumb 0.522044 -44.0702
lclavicle 1.35174e-014 2.70347e-014
lhumerus -44.0448 9.57394 75.5047
lradius 60.8344
lwrist -12.2201
lhand -32.3378 2.8027
lfingers 7.12502
lthumb -5.57485 32.7094
rfemur -42.2171 -8.43226 5.08643
rtibia 55.6322
rfoot -15.2588 2.89621
rtoes -38.3398
lfemur -41.0934 4.60945 1.72095
ltibia 62.945
lfoot -22.1443 -5.01269
ltoes -5.7096
266
root -1.93642 15.8639 -38.471 184.964 -4.41138 -178.562
lowerback 28.5183 -0.909132 5.84554
upperback 3.03448 0.12452 4.619
thorax -12.393 -0.563637 1.99079
lowerneck -12.9855 -4.45175 -4.22541
upperneck 2.02487 -5.5002 1.45271
head 3.118 -2.78316 0.844889
rclavicle 0 5.40694e-014
rhumerus -18.7419 -20.2854 -79.0831
rradius 47.3085
rwrist -0.880511
rhand -26.1536 -13.9288
rfingers 7.12502
rthumb 0.397398 -43.9081
lclavicle 0 5.40694e-014
lhumerus -43.719 9.02644 76.1628
lradius 60.5991
lwrist -11.1297
lhand -32.2797 3.05325
lfingers 7.12502
lthumb -5.51876 32.9614
rfemur -42.2694 -8.76741 5.153
rtibia 55.8244
rfoot -16.0102 3.16496
rtoes -38.9967
lfemur -40.4468 4.77555 1.63282
ltibia 63.2329
lfoot -22.9639 -4.09506
ltoes -5.12559
267
root -1.94933 15.8723 -38.5959 185.193 -3.76959 -178.576
lowerback 28.3333 -0.8628 5.79565
upperback 3.0528 0.14894 4.63356
thorax -12.2748 -0.549838 2.01962
lowerneck -13.0377 -4.23571 -4.08252
upperneck 1.93613 -5.22552 1.12351
head 3.0715 -2.66287 0.730981
rclavicle -1.27222e-014 -2.70347e-014
rhumerus -18.7762 -19.3239 -79.1066
rradius 47.6853
rwrist -0.458448
rhand -26.2856 -13.7252
rfingers 7.12502
rthumb 0.269863 -43.7048
lclavicle -1.27222e-014 -2.70347e-014
lhumerus -43.3477 8.19661 76.9449
lradius 60.3403
lwrist -9.96041
lhand -32.0879 3.24589
lfingers 7.12502
lthumb -5.33363 33.1588
rfemur -42.242 -9.11194 5.28367
rtibia 55.823
rfoot -16.5613 2.98947
rtoes -39.7544
lfemur -39.8589 4.88891 1.59059
ltibia 63.3409
lfoot -23.6756 -3.26622
ltoes -4.50984
268
root -1.96348 15.8917 -38.7183 185.529 -3.24545 -178.476
lowerback 28.0884 -0.848643 5.88299
upperback 3.01695 0.183104 4.6691
thorax -12.1876 -0.535359 1.99044
lowerneck -13.081 -4.26525 -3.91327
upperneck 1.8976 -4.92826 0.813491
head 3.04495 -2.37971 0.62754
rclavicle -3.57812e-014 7.95139e-015
rhumerus -18.9134 -18.2746 -79.1401
rradius 48.1211
rwrist -0.0942903
rhand -26.4015 -13.4723
rfingers 7.12502
rthumb 0.157929 -43.4519
lclavicle -3.57812e-014 7.95139e-015
lhumerus -42.9771 7.1328 77.8107
lradius 60.1144
lwrist -8.86449
lhand -31.7392 3.35252
lfingers 7.12502
lthumb -4.99692 33.2736
rfemur -42.2092 -9.44027 5.52774
rtibia 55.6729
rfoot -16.8374 2.30302
rtoes -40.5473
lfemur -39.3791 4.97273 1.64758
ltibia 63.3099
lfoot -24.2856 -2.53039
ltoes -3.96282
269
root -1.97854 15.9216 -38.839 185.972 -2.8275 -178.252
lowerback 27.7848 -0.86263 6.10525
upperback 2.93304 0.228243 4.72747
thorax -12.1241 -0.520072 1.90631
lowerneck -13.1325 -4.10151 -3.80759
upperneck 1.89514 -4.70298 0.538649
head 3.03608 -2.27602 0.534048
rclavicle -1.43125e-014 -4.6118e-014
rhumerus -19.1173 -17.149 -79.2039
rradius 48.6169
rwrist 0.157623
rhand -26.4783 -13.1698
rfingers 7.12502
rthumb 0.0837757 -43.1495
lclavicle -1.43125e-014 -4.6118e-014
lhumerus -42.6421 5.91399 78.7176
lradius 59.9661
lwrist -7.98805
lhand -31.2584 3.29584
lfingers 7.12502
lthumb -4.53269 33.2273
rfemur -42.1816 -9.74709 5.90282
rtibia 55.3898
rfoot -16.8059 1.14973
rtoes -41.2426
lfemur -39.0186 5.0394 1.82067
ltibia 63.1692
lfoot -24.7929 -1.90179
ltoes -3.4837
270
root -1.99446 15.9604 -38.9593 186.499 -2.5099 -177.918
lowerback 27.4548 -0.896794 6.43695
upperback 2.8035 0.286677 4.80796
thorax -12.098 -0.502715 1.78166
lowerneck -13.1909 -3.95868 -3.71997
upperneck 1.91796 -4.5063 0.305969
head 3.0409 -2.18581 0.455154
rclavicle -1.59028e-015 0
rhumerus -19.393 -15.959 -79.2905
rradius 49.1897
rwrist 0.278567
rhand -26.4671 -12.8448
rfingers 7.12502
rthumb 0.0945799 -42.8246
lclavicle -1.59028e-015 0
lhumerus -42.3857 4.62295 79.6349
lradius 59.9262
lwrist -7.46786
lhand -30.6643 3.06264
lfingers 7.12502
lthumb -3.95893 33.0056
rfemur -42.1294 -10.0328 6.39005
rtibia 54.9805
rfoot -16.5057 -0.392793
rtoes -41.8892
lfemur -38.7565 5.09087 2.09643
ltibia 62.9433
lfoot -25.209 -1.36647
ltoes -3.15108
271
root -2.01092 16.0062 -39.0796 187.083 -2.26896 -177.533
lowerback 27.1107 -0.931169 6.80478
upperback 2.64524 0.35876 4.89691
thorax -12.0964 -0.480199 1.64248
lowerneck -13.2634 -3.83674 -3.63504
upperneck 1.95155 -4.3392 0.110249
head 3.05472 -2.10921 0.38642
rclavicle -2.22639e-014 -7.79236e-014
rhumerus -19.7274 -14.7184 -79.4016
rradius 49.8523
rwrist 0.266825
rhand -26.361 -12.5076
rfingers 7.12502
rthumb 0.197107 -42.4873
lclavicle -2.22639e-014 -7.79236e-014
lhumerus -42.2176 3.33379 80.5369
lradius 60.0128
lwrist -7.37378
lhand -30.0194 2.62194
lfingers 7.12502
lthumb -3.33622 32.5756
rfemur -42.0389 -10.3116 6.92955
rtibia 54.4523
rfoot -16.0045 -2.10961
rtoes -42.4021
lfemur -38.5604 5.13304 2.41267
ltibia 62.6521
lfoot -25.5403 -0.912131
ltoes -2.98333
272
root -2.02803 16.0575 -39.2006 187.69 -2.08296 -177.155
lowerback 26.7635 -0.949698 7.1456
upperback 2.47985 0.442804 4.9802
thorax -12.1002 -0.450708 1.50873
lowerneck -13.3562 -3.73868 -3.55483
upperneck 1.97941 -4.20468 -0.0431109
head 3.07295 -2.04693 0.329832
rclavicle -5.56597e-015 -1.27222e-014
rhumerus -20.1 -13.4581 -79.5307
rradius 50.5959
rwrist 0.167987
rhand -26.1585 -12.1603
rfingers 7.12502
rthumb 0.392674 -42.1397
lclavicle -5.56597e-015 -1.27222e-014
lhumerus -42.1205 2.10175 81.4109
lradius 60.2126
lwrist -7.69606
lhand -29.3983 1.97681
lfingers 7.12502
lthumb -2.7364 31.939
rfemur -41.8912 -10.6038 7.45767
rtibia 53.8221
rfoot -15.4144 -3.7679
rtoes -42.745
lfemur -38.3868 5.15912 2.70538
ltibia 62.3203
lfoot -25.804 -0.524918
ltoes -2.98993
